<?xml version="1.0" standalone="no"?><!DOCTYPE svg PUBLIC "-//W3C//DTD SVG 1.1//EN" "http://www.w3.org/Graphics/SVG/1.1/DTD/svg11.dtd"><svg t="1555588424310" class="icon" style="" viewBox="0 0 1024 1024" version="1.1" xmlns="http://www.w3.org/2000/svg" p-id="1038" xmlns:xlink="http://www.w3.org/1999/xlink" width="128" height="128"><defs><style type="text/css"></style></defs><path d="M512 512m-512 0a512 512 0 1 0 1024 0 512 512 0 1 0-1024 0Z" fill="#f4ea2a" p-id="1039" data-spm-anchor-id="a313x.7781069.0.i2" class="selected"></path><path d="M708.076308 270.867692H676.627692c3.091692 5.395692 4.686769 11.500308 4.647385 17.723077v35.859693a35.446154 35.446154 0 0 1-34.323692 35.643076H359.108923a35.643077 35.643077 0 0 1-34.776615-35.643076v-35.879385a33.437538 33.437538 0 0 1 4.883692-17.723077H297.747692a71.522462 71.522462 0 0 0-71.522461 71.325538v357.159385a71.522462 71.522462 0 0 0 71.522461 70.852923h241.132308A160.748308 160.748308 0 0 1 779.815385 561.604923V342.173538a71.522462 71.522462 0 0 0-71.739077-71.305846zM495.064615 629.129846h-170.732307v-55.335384h170.732307v55.335384z m81.033847-119.788308H324.332308v-55.571692h251.766154v55.571692z" fill="#FFFFFF" p-id="1040"></path><path d="M437.720615 324.903385h142.808616a35.879385 35.879385 0 0 0 35.879384-35.643077v-35.66277a35.643077 35.643077 0 0 0-35.879384-35.643076h-142.808616a35.643077 35.643077 0 0 0-35.879384 35.643076v35.643077a35.879385 35.879385 0 0 0 35.879384 35.643077zM672.433231 556.504615a124.888615 124.888615 0 1 0 124.868923 125.105231 124.652308 124.652308 0 0 0-124.868923-125.105231z m71.286154 160.531693h-106.929231v-99.40677h35.643077V677.415385h71.286154v39.620923z" fill="#FFFFFF" p-id="1041"></path></svg>