<?xml version="1.0" standalone="no"?><!DOCTYPE svg PUBLIC "-//W3C//DTD SVG 1.1//EN" "http://www.w3.org/Graphics/SVG/1.1/DTD/svg11.dtd"><svg t="1555587783460" class="icon" style="" viewBox="0 0 1024 1024" version="1.1" xmlns="http://www.w3.org/2000/svg" p-id="18905" id="mx_n_1555587783461" xmlns:xlink="http://www.w3.org/1999/xlink" width="128" height="128"><defs><style type="text/css"></style></defs><path d="M511.261 509.83m-447.928 0a447.928 447.928 0 1 0 895.856 0 447.928 447.928 0 1 0-895.856 0Z" fill="#F982D3" p-id="18906" data-spm-anchor-id="a313x.7781069.0.i47" class=""></path><path d="M735.225 789.785c0 15.461-12.534 27.995-27.995 27.995H315.293c-15.461 0-27.995-12.534-27.995-27.995s12.534-27.995 27.995-27.995H707.23c15.461 0 27.995 12.534 27.995 27.995z" fill="#231F20" p-id="18907"></path><path d="M567.252 691.801c0 23.192-18.801 41.993-41.993 41.993h-27.995c-23.192 0-41.993-18.801-41.993-41.993V551.823c0-23.192 18.801-41.993 41.993-41.993h27.995c23.192 0 41.993 18.801 41.993 41.993v139.978z" fill="#dbdbdb" p-id="18908" data-spm-anchor-id="a313x.7781069.0.i45" class="selected"></path><path d="M637.241 537.826c-15.46 0-27.995-12.535-27.995-27.995s12.535-27.995 27.995-27.995c44.481 0 97.984-76.851 97.984-125.125 0-37.967 0-42.848-55.991-42.848H343.288c-55.991 0-55.991 4.88-55.991 42.848 0 48.274 53.503 125.125 97.984 125.125 15.46 0 27.995 12.535 27.995 27.995s-12.535 27.995-27.995 27.995c-77.849 0-153.975-103.712-153.975-181.116 0-91.279 52.97-98.839 111.982-98.839h335.946c59.012 0 111.982 7.559 111.982 98.839 0 77.404-76.127 181.116-153.975 181.116z" fill="#231F20" p-id="18909" data-spm-anchor-id="a313x.7781069.0.i48" class=""></path><path d="M637.241 509.83c-15.46 0-27.995-12.535-27.995-27.995s12.535-27.995 27.995-27.995c44.481 0 97.984-76.851 97.984-125.118 0-37.974 0-42.854-55.991-42.854H343.288c-55.991 0-55.991 4.88-55.991 42.854 0 48.268 53.503 125.118 97.984 125.118 15.46 0 27.995 12.535 27.995 27.995s-12.535 27.995-27.995 27.995c-77.849 0-153.975-103.698-153.975-181.109 0-91.286 52.97-98.845 111.982-98.845h335.946c59.012 0 111.982 7.559 111.982 98.845 0 77.411-76.127 181.109-153.975 181.109z" fill="#dbdbdb" p-id="18910" data-spm-anchor-id="a313x.7781069.0.i43" class="selected"></path><path d="M315.89 229.875c8.537 278.704 117.424 335.946 195.371 335.946s186.834-57.241 195.371-335.946H315.89zM675.098 765.34c-16.746-50.075-83.677-87.537-163.837-87.537S364.17 715.265 347.424 765.34h327.674z" fill="#dbdbdb" p-id="18911" data-spm-anchor-id="a313x.7781069.0.i40" class="selected"></path><path d="M735.225 761.79c0 15.461-12.534 27.995-27.995 27.995H315.293c-15.461 0-27.995-12.534-27.995-27.995s12.534-27.995 27.995-27.995H707.23c15.461-0.001 27.995 12.533 27.995 27.995z" fill="#e6e6e6" p-id="18912" data-spm-anchor-id="a313x.7781069.0.i46" class=""></path><path d="M595.247 649.808c0 15.461-12.534 27.995-27.995 27.995H455.27c-15.461 0-27.995-12.534-27.995-27.995s12.534-27.995 27.995-27.995h111.982c15.461-0.001 27.995 12.533 27.995 27.995z" fill="#231F20" p-id="18913"></path><path d="M595.247 621.812c0 15.461-12.534 27.995-27.995 27.995H455.27c-15.461 0-27.995-12.534-27.995-27.995s12.534-27.995 27.995-27.995h111.982c15.461 0 27.995 12.534 27.995 27.995z" fill="#dbdbdb" p-id="18914" data-spm-anchor-id="a313x.7781069.0.i44" class="selected"></path><path d="M735.225 285.866c0 15.461-12.534 27.995-27.995 27.995H315.293c-15.461 0-27.995-12.534-27.995-27.995s12.534-27.995 27.995-27.995H707.23c15.461 0 27.995 12.534 27.995 27.995z" fill="#F982D3" p-id="18915" data-spm-anchor-id="a313x.7781069.0.i41" class=""></path><path d="M735.225 257.871c0 15.461-12.534 27.995-27.995 27.995H315.293c-15.461 0-27.995-12.534-27.995-27.995s12.534-27.995 27.995-27.995H707.23c15.461-0.001 27.995 12.533 27.995 27.995z" fill="#dbdbdb" p-id="18916" data-spm-anchor-id="a313x.7781069.0.i42" class="selected"></path></svg>