<?xml version="1.0" standalone="no"?><!DOCTYPE svg PUBLIC "-//W3C//DTD SVG 1.1//EN" "http://www.w3.org/Graphics/SVG/1.1/DTD/svg11.dtd"><svg t="1555588036167" class="icon" style="" viewBox="0 0 1024 1024" version="1.1" xmlns="http://www.w3.org/2000/svg" p-id="29328" xmlns:xlink="http://www.w3.org/1999/xlink" width="128" height="128"><defs><style type="text/css"></style></defs><path d="M511.934 511.992m-511.934 0a511.934 511.934 0 1 0 1023.868 0 511.934 511.934 0 1 0-1023.868 0Z" fill="#1296db" p-id="29329" data-spm-anchor-id="a313x.7781069.0.i51" class="selected"></path><path d="M452.78 1020.502L242.844 810.564 447.62 225.7l47.124 44.488 350.162 11.58 176.226 176.228C1022.968 475.766 1024 493.768 1024 512c0 282.744-229.198 511.942-511.942 511.942-20.064 0-39.786-1.146-59.164-3.44h-0.114z" fill="#1296db" p-id="29330" data-spm-anchor-id="a313x.7781069.0.i50" class="selected"></path><path d="M513.318 265.716h299.254c22.416 0 40.588 18.172 40.588 40.588v174.966c0 22.416-18.172 40.588-40.588 40.588H513.318c-22.416 0-40.588-18.172-40.588-40.588v-174.966c0-22.416 18.172-40.588 40.588-40.588z" fill="#F5F5F5" p-id="29331"></path><path d="M844.906 281.768c5.16 6.88 8.254 15.364 8.254 24.538v174.852c0 22.358-18.23 40.588-40.588 40.588H513.318a40.456 40.456 0 0 1-33.136-17.2l364.724-222.894v0.116z" fill="#EFEFF0" p-id="29332"></path><path d="M853.16 352.856v81.864h-17.772c-5.16 0-9.402-4.244-9.402-9.402v-63.176c0-5.16 4.244-9.402 9.402-9.402h17.772v0.116z" fill="#4D4D4D" p-id="29333"></path><path d="M264.056 209.076h144.582c29.95 0 54.232 24.282 54.232 54.232v497.382c0 29.952-24.282 54.232-54.232 54.232h-144.582c-29.952 0-54.232-24.282-54.232-54.232V263.308c-0.002-29.95 24.278-54.232 54.232-54.232z" fill="#E84F4F" p-id="29334"></path><path d="M336.29 209.076h72.348c29.81 0 54.232 24.422 54.232 54.232v497.382c0 29.81-24.422 54.232-54.232 54.232h-72.348V209.076z" fill="#C94545" p-id="29335"></path><path d="M339.382 393.798m-168.67 0a168.67 168.67 0 1 0 337.34 0 168.67 168.67 0 1 0-337.34 0Z" fill="#E6E6E6" p-id="29336"></path><path d="M339.382 393.798m-123.486 0a123.486 123.486 0 1 0 246.972 0 123.486 123.486 0 1 0-246.972 0Z" fill="#CCCCCC" p-id="29337"></path><path d="M339.382 393.798m-109.268 0a109.268 109.268 0 1 0 218.536 0 109.268 109.268 0 1 0-218.536 0Z" fill="#0088FF" p-id="29338"></path><path d="M385.476 667.36h14.446a9.86 9.86 0 0 1 0 19.72h-14.446a9.86 9.86 0 0 1-9.86-9.86 9.86 9.86 0 0 1 9.86-9.86z" fill="#E6E6E6" p-id="29339"></path><path d="M243.876 743.72h188.036a5.734 5.734 0 0 1 5.734 5.734v0.114a5.734 5.734 0 0 1-5.734 5.734h-188.036a5.734 5.734 0 0 1-5.734-5.734v-0.114a5.734 5.734 0 0 1 5.734-5.734zM258.78 766.538h158.112a5.734 5.734 0 0 1 5.734 5.734v0.114a5.734 5.734 0 0 1-5.734 5.734H258.78a5.734 5.734 0 0 1-5.734-5.734v-0.114a5.736 5.736 0 0 1 5.734-5.734z" fill="#C94545" p-id="29340"></path><path d="M370.794 616.564a22.006 21.784 90 1 0 43.568 0 22.006 21.784 90 1 0-43.568 0Z" fill="#E6E6E6" p-id="29341"></path><path d="M339.382 393.798m-83.01 0a83.01 83.01 0 1 0 166.02 0 83.01 83.01 0 1 0-166.02 0Z" fill="#0062FF" p-id="29342"></path><path d="M339.382 393.798m-31.188 0a31.188 31.188 0 1 0 62.376 0 31.188 31.188 0 1 0-62.376 0Z" fill="#022D91" p-id="29343"></path><path d="M313.134 352.044m-15.936 0a15.936 15.936 0 1 0 31.872 0 15.936 15.936 0 1 0-31.872 0Z" fill="#FFFFFF" p-id="29344"></path><path d="M365.99 430.708m-10.664 0a10.664 10.664 0 1 0 21.328 0 10.664 10.664 0 1 0-21.328 0Z" fill="#FFFFFF" p-id="29345"></path></svg>