<?xml version="1.0" standalone="no"?><!DOCTYPE svg PUBLIC "-//W3C//DTD SVG 1.1//EN" "http://www.w3.org/Graphics/SVG/1.1/DTD/svg11.dtd"><svg t="1555588405125" class="icon" style="" viewBox="0 0 1024 1024" version="1.1" xmlns="http://www.w3.org/2000/svg" p-id="810" xmlns:xlink="http://www.w3.org/1999/xlink" width="128" height="128"><defs><style type="text/css"></style></defs><path d="M512 512m-512 0a512 512 0 1 0 1024 0 512 512 0 1 0-1024 0Z" fill="#1296db" p-id="811"></path><path d="M252.586667 301.397333c0-26.965333 21.942857-48.810667 48.810666-48.810666h149.455238c26.940952 0 48.786286 21.942857 48.786286 48.810666v149.455238c0 26.940952-21.918476 48.786286-48.810667 48.786286h-149.430857c-26.965333 0-48.810667-21.918476-48.810666-48.810667v-149.430857z m0 285.42781c0-26.965333 21.942857-48.810667 48.810666-48.810667h149.455238c26.940952 0 48.786286 21.918476 48.786286 48.810667v149.430857c0 26.965333-21.918476 48.810667-48.810667 48.810667h-149.430857c-26.965333 0-48.810667-21.942857-48.810666-48.810667v-149.455238z m285.427809-285.42781c0-26.965333 21.918476-48.810667 48.810667-48.810666h149.430857c26.965333 0 48.810667 21.942857 48.810667 48.810666v149.455238c0 26.940952-21.942857 48.786286-48.810667 48.786286h-149.455238c-26.940952 0-48.786286-21.918476-48.786286-48.810667v-149.430857z m0 285.42781c0-26.965333 21.918476-48.810667 48.810667-48.810667h149.430857c26.965333 0 48.810667 21.918476 48.810667 48.810667v149.430857c0 26.965333-21.942857 48.810667-48.810667 48.810667h-149.455238c-26.940952 0-48.786286-21.942857-48.786286-48.810667v-149.455238z" fill="#e6e6e6" p-id="812" data-spm-anchor-id="a313x.7781069.0.i0" class="selected"></path></svg>