<?xml version="1.0" standalone="no"?><!DOCTYPE svg PUBLIC "-//W3C//DTD SVG 1.1//EN" "http://www.w3.org/Graphics/SVG/1.1/DTD/svg11.dtd"><svg t="1555586489997" class="icon" style="" viewBox="0 0 1024 1024" version="1.1" xmlns="http://www.w3.org/2000/svg" p-id="6567" xmlns:xlink="http://www.w3.org/1999/xlink" width="128" height="128"><defs><style type="text/css"></style></defs><path d="M511.4 513m-448 0a448 448 0 1 0 896 0 448 448 0 1 0-896 0Z" fill="#e6e6e6" p-id="6568" data-spm-anchor-id="a313x.7781069.0.i8" class=""></path><path d="M680.5 382.3h-37.3V401c0 20.6-16.7 37.3-37.3 37.3s-37.3-16.7-37.3-37.3v-18.7h-112V401c0 20.6-16.7 37.3-37.3 37.3-20.6 0-37.3-16.7-37.3-37.3v-18.7h-37.3c-20.6 0-37.3 16.7-37.3 37.3v224c0 20.6 16.7 37.3 37.3 37.3h336c20.6 0 37.3-16.7 37.3-37.3v-224c-0.2-20.6-16.9-37.3-37.5-37.3z" fill="#FFCC5E" p-id="6569" data-spm-anchor-id="a313x.7781069.0.i7" class=""></path><path d="M418.1 345c-10.3 0-18.7 8.4-18.7 18.7V401c0 10.3 8.4 18.7 18.7 18.7s18.7-8.4 18.7-18.7v-37.3c0-10.3-8.4-18.7-18.7-18.7zM604.8 345c-10.3 0-18.7 8.4-18.7 18.7V401c0 10.3 8.4 18.7 18.7 18.7s18.7-8.4 18.7-18.7v-37.3c-0.1-10.3-8.4-18.7-18.7-18.7zM503.1 589.2c-6 0-11.9-2.3-16.5-6.8l-45.2-45.2c-3.1-3.1-3.1-8.1 0-11.2 3.1-3.1 8.1-3.1 11.2 0l45.2 45.2c2.9 2.9 7.6 2.9 10.5 0l82.5-82.5c3.1-3.1 8.1-3.1 11.2 0 3.1 3.1 3.1 8.1 0 11.2l-82.5 82.5c-4.4 4.6-10.4 6.8-16.4 6.8z" fill="#FF9D68" p-id="6570"></path></svg>