<?xml version="1.0" standalone="no"?><!DOCTYPE svg PUBLIC "-//W3C//DTD SVG 1.1//EN" "http://www.w3.org/Graphics/SVG/1.1/DTD/svg11.dtd"><svg t="1555588613094" class="icon" style="" viewBox="0 0 1024 1024" version="1.1" xmlns="http://www.w3.org/2000/svg" p-id="1227" id="mx_n_1555588613096" xmlns:xlink="http://www.w3.org/1999/xlink" width="128" height="128"><defs><style type="text/css"></style></defs><path d="M512 512m-512 0a512 512 0 1 0 1024 0 512 512 0 1 0-1024 0Z" fill="#F982D3" p-id="1228" data-spm-anchor-id="a313x.7781069.0.i1" class="selected"></path><path d="M1022.3 507.3c-0.6-15.7-0.7-31.2-2.1-46.6l-300-198.1-48.9 100.2 22.1 95.8-57.6 114.1-129.8 59 17.1 126.7-136 34.5 323.2 191.3c166.1-64.1 320.5-252.7 312-476.9z" fill="#549BD6" opacity=".3" p-id="1229"></path><path d="M489.4 625.1h31v163.7h-31z" fill="#FFFFFF" p-id="1230"></path><path d="M507 271.8c45.5 0 88.2 17.7 120.4 49.9s49.9 74.9 49.9 120.4-17.7 88.2-49.9 120.4-74.9 49.9-120.4 49.9-88.2-17.7-120.4-49.9-49.9-74.9-49.9-120.4 17.7-88.2 49.9-120.4 74.9-49.9 120.4-49.9m0-22.9c-106.6 0-193.1 86.5-193.1 193.1S400.4 635.1 507 635.1 700.1 548.7 700.1 442 613.7 248.9 507 248.9z" fill="#FFFFFF" p-id="1231"></path><path d="M735.8 274.1c-14.6-10.6-35.1-16.2-54.2-18.3-7.8-17.5-19.5-35.4-34.1-46-33-24-59.3-14.4-76.2 8.8-16.9 23.2-18 51.1 15 75.2 14.6 10.6 35.3 16 54.5 17.9 7.7 17.7 19.2 35.8 33.8 46.4 33 24 59.3 14.4 76.2-8.8 16.8-23.2 18-51.1-15-75.2zM611.3 798.5H398.4c-19.2 0-35-15.7-35-35v-4.9c0-19.2 15.7-35 35-35h212.9c19.2 0 35 15.7 35 35v4.9c0 19.3-15.7 35-35 35z" fill="#FFFFFF" p-id="1232"></path></svg>