<?xml version="1.0" standalone="no"?><!DOCTYPE svg PUBLIC "-//W3C//DTD SVG 1.1//EN" "http://www.w3.org/Graphics/SVG/1.1/DTD/svg11.dtd"><svg class="icon" width="128px" height="128.00px" viewBox="0 0 1024 1024" version="1.1" xmlns="http://www.w3.org/2000/svg"><path d="M396.8 377.6c-25.6 0-44.8 19.2-44.8 44.8 0 25.6 19.2 44.8 44.8 44.8s44.8-19.2 44.8-44.8c0-25.6-19.2-44.8-44.8-44.8z m0 76.8c-12.8 0-32-12.8-32-32 0-12.8 12.8-32 32-32 12.8 0 32 12.8 32 32s-19.2 32-32 32z" fill="#2c2c2c" /><path d="M864 307.2c-19.2-38.4-89.6-44.8-192-19.2-44.8-38.4-96-51.2-153.6-51.2-153.6 0-281.6 121.6-281.6 275.2v6.4c-70.4 70.4-96 128-76.8 166.4 12.8 25.6 44.8 38.4 89.6 38.4 19.2 0 38.4 0 64-6.4h12.8c51.2 44.8 115.2 76.8 192 76.8 153.6 0 275.2-121.6 275.2-275.2 0-12.8 0-32-6.4-44.8l19.2-19.2c57.6-64 76.8-115.2 57.6-147.2zM172.8 678.4c-12.8-25.6 6.4-76.8 64-134.4 6.4 57.6 32 115.2 70.4 153.6-70.4 12.8-115.2 6.4-134.4-19.2zM275.2 512c0-134.4 108.8-243.2 243.2-243.2 121.6 0 224 89.6 236.8 204.8-32 25.6-70.4 57.6-108.8 83.2 0-32-25.6-64-64-64-32 0-64 25.6-64 64 0 25.6 12.8 44.8 32 51.2-70.4 38.4-140.8 64-204.8 83.2-44.8-44.8-70.4-108.8-70.4-179.2z m352 44.8v12.8c-19.2 6.4-32 19.2-51.2 25.6-19.2 0-32-19.2-32-38.4 0-25.6 19.2-44.8 38.4-44.8 25.6 0 44.8 19.2 44.8 44.8z m-108.8 198.4c-57.6 0-108.8-19.2-147.2-51.2 64-19.2 140.8-44.8 211.2-89.6h6.4c25.6 0 44.8-12.8 57.6-38.4 44.8-25.6 83.2-57.6 115.2-83.2V512c-6.4 134.4-115.2 243.2-243.2 243.2zM787.2 448c-19.2-64-51.2-115.2-96-153.6 83.2-19.2 140.8-12.8 160 19.2 12.8 25.6-6.4 70.4-57.6 128 0 0-6.4 0-6.4 6.4z" fill="#2c2c2c" /></svg>