<?xml version="1.0" standalone="no"?><!DOCTYPE svg PUBLIC "-//W3C//DTD SVG 1.1//EN" "http://www.w3.org/Graphics/SVG/1.1/DTD/svg11.dtd"><svg t="1556093648894" class="icon" style="" viewBox="0 0 1024 1024" version="1.1" xmlns="http://www.w3.org/2000/svg" p-id="7137" xmlns:xlink="http://www.w3.org/1999/xlink" width="128" height="128"><defs><style type="text/css"></style></defs><path d="M370.907429 703.524571a13.092571 13.092571 0 0 1 11.52-1.572571 390.765714 390.765714 0 0 0 125.001142 20.132571c174.921143 0 315.428571-111.177143 315.428572-245.997714 0-134.820571-140.507429-245.997714-315.428572-245.997714-174.921143 0-315.428571 111.177143-315.428571 245.997714 0 62.372571 30.08 121.417143 83.748571 166.747429a14.829714 14.829714 0 0 1 5.101715 12.416l-8.411429 114.285714 98.468572-66.011429z m9.325714 28.013715l-116.224 77.952c-9.545143 6.4-21.906286-1.462857-21.028572-13.348572l9.965715-135.606857C196.626286 610.56 164.571429 545.499429 164.571429 476.086857 164.571429 323.181714 318.793143 201.142857 507.428571 201.142857S850.285714 323.181714 850.285714 476.086857c0 152.905143-154.221714 274.944-342.857143 274.944-44.123429 0-87.094857-6.674286-127.177142-19.492571zM333.714286 533.961143c-30.299429 0-54.857143-25.910857-54.857143-57.874286s24.557714-57.892571 54.857143-57.892571 54.857143 25.929143 54.857143 57.892571-24.557714 57.874286-54.857143 57.874286z m0-19.291429c20.205714 0 36.571429-17.28 36.571428-38.582857 0-21.321143-16.365714-38.582857-36.571428-38.582857s-36.571429 17.261714-36.571429 38.582857c0 21.302857 16.365714 38.582857 36.571429 38.582857z m173.714285 19.291429c-30.299429 0-54.857143-25.910857-54.857142-57.874286s24.557714-57.892571 54.857142-57.892571 54.857143 25.929143 54.857143 57.892571-24.557714 57.874286-54.857143 57.874286z m0-19.291429c20.205714 0 36.571429-17.28 36.571429-38.582857 0-21.321143-16.365714-38.582857-36.571429-38.582857s-36.571429 17.261714-36.571428 38.582857c0 21.302857 16.365714 38.582857 36.571428 38.582857z m173.714286 19.291429c-30.299429 0-54.857143-25.910857-54.857143-57.874286s24.557714-57.892571 54.857143-57.892571 54.857143 25.929143 54.857143 57.892571-24.557714 57.874286-54.857143 57.874286z m0-19.291429c20.205714 0 36.571429-17.28 36.571429-38.582857 0-21.321143-16.365714-38.582857-36.571429-38.582857s-36.571429 17.261714-36.571428 38.582857c0 21.302857 16.365714 38.582857 36.571428 38.582857z" fill="#2c2c2c" p-id="7138"></path></svg>